<svg xmlns="http://www.w3.org/2000/svg" viewBox="0 0 443.84 274.06"><defs><style>.cls-1{font-size:234.36px;fill:#bca80e;font-family:BebasNeue, Bebas Neue;}.cls-2,.cls-4{fill:#fff;}.cls-3,.cls-5{fill:none;}.cls-3,.cls-4{stroke:#fff;}.cls-3,.cls-4,.cls-5{stroke-miterlimit:10;stroke-width:2px;}.cls-5{stroke:#000;}</style></defs><g id="Layer_2" data-name="Layer 2"><g id="Layer_1-2" data-name="Layer 1"><rect width="407.32" height="274.06"/><text class="cls-1" transform="translate(11.48 222.37) scale(0.84 1)">about</text><path class="cls-2" d="M374.78,187.56c0,6.73.05,13.46,0,20.19-.06,6.44-.56,6.92-6.52,7-1.5,0-3-.08-4.51,0-3.3.18-5-1.24-5-4.86q.08-26.46,0-52.93c0-3.52,1.5-4.69,4.86-5,6.44-.6,10.88,1.18,14,7.7,3.41,7.12,8,13.63,12.94,20.29,0-7.2.2-14.4-.08-21.59-.18-4.8,1.47-6.54,6.09-6.35,10.14.43,9.69-1.7,9.68,10.18,0,15.55-.14,31.1.07,46.64.06,4.67-1.69,5.69-5.86,6.11-6.27.62-9.79-2-12.67-7.51-3.63-6.94-8-13.46-12-20.15ZM362.87,156.3a4.52,4.52,0,0,0-.5,1.4c-.07,16.74-.18,33.48,0,50.22,0,1.07,2.39,2.68,3.88,3,1.93.44,4.61.8,4.64-2.83,0-5.06.09-10.12.11-15.17,0-4.78,0-9.56,0-14.34l2-.67A29.36,29.36,0,0,1,376.7,182c5,8.05,10,16.05,14.58,24.36,2.83,5.19,6.48,5.55,11.54,3.89v-47.7c0-3.69,1.16-5.73,0-6.54-1.49-1-4.71-1-8.7.1,0,8.9.07,18.5-.07,27.53,0,1.54-.92,3.07-1.41,4.6-1.24-1-2.85-1.66-3.63-2.93-4.91-7.88-9.94-15.72-14.31-23.93-1.66-3.11-3.57-5-5.94-5.6A9.83,9.83,0,0,0,362.87,156.3Z"/><path class="cls-2" d="M314.64,162.82c0,6.79-.09,13.06,0,19.34.08,3.61-1.48,5.06-4.78,5.08-13.15.08-10.79.46-10.86-10.47-.08-15.36.16-30.73-.07-46.08-.07-4.75,1.26-7,5.94-6.39a19.1,19.1,0,0,0,4,0c4.37-.38,6,1.7,5.76,6.2-.26,4.67-.06,9.37-.06,14.61,2.82.17,5.25.27,7.67.47,3,.25,4.23-1,4.1-4.21-.16-4.18.06-8.38,0-12.57-.06-3.13,1.39-4.23,4.24-4.47,10.95-.9,11.29-.64,11.3,10.69,0,15.53-.11,31.07.09,46.6.06,4.18-1.44,5.78-5.21,5.57-.33,0-.66,0-1,0-9.48.22-9.47.22-9.48-9.46q0-6.81-.08-13.61a6.82,6.82,0,0,0-.37-1.33Zm23.68,20.61V128.05h-8.67v7c0,14.42,0,14.31-13.77,14-3.5-.07-4.75-1.3-4.62-4.9.18-5.33,0-10.68,0-16h-9c0,2.46,0,4.53,0,6.59q0,21,.07,41.9c0,7.71,1.36,8.67,8.92,5.93,0-3.34-.06-6.82,0-10.3.32-15.69-2.84-13.21,13.42-13.46,3.63-.05,5.12,1.29,5,5.19-.2,6.39,0,12.78,0,19.43Z"/><path class="cls-2" d="M197.28,197.63c.14-2.63.33-4.62.34-6.62,0-11.33.16-22.65-.08-34-.1-4.63,1.13-6.56,5.9-6.46,9.82.21,9.84,0,9.83,10.08,0,11.85,0,23.7-.1,35.54-.1,7.56-2.1,14.39-9.54,17.38s-14,.78-19.83-4.61c-4.15-3.87-4.39-6.52-1.08-10.68,4.33-5.46,7-6,11.38-2.46A26.14,26.14,0,0,0,197.28,197.63Zm3.75-43v6c0,11.52.08,23.05-.12,34.57,0,1.86-1,4.77-2.19,5.28-1.6.65-3.94-.53-5.9-1.13-.73-.23-1.42-1.64-1.91-1.52-1.71.43-3.73.88-4.87,2.1-1,1.06-1.8,3.6-1.26,4.75,2.13,4.49,9.51,7.14,15.51,6.09a10.6,10.6,0,0,0,9-10.43c.41-15.12.14-30.26.14-45.74Z"/><path class="cls-2" d="M227,183c-.06-18.47,13.14-33.12,29.85-33.14,16.53,0,29.75,14.46,29.86,32.69.11,19-12.83,33.26-30.2,33.23C239.76,215.78,227.06,201.68,227,183Zm29.25,28.89c15.44.31,26.54-11.36,27-28.45.47-16.26-11.08-29.62-25.91-30-14.6-.34-26.64,12.31-26.92,28.27C230.13,199.19,240.76,211.6,256.24,211.92Z"/><path class="cls-2" d="M256.81,163.36c10,0,17.74,8.76,17.66,19.93-.08,10.67-8.13,19.38-17.8,19.27-10-.12-17.51-8.5-17.46-19.47C239.25,171.44,246.48,163.34,256.81,163.36ZM256.5,167c-8.15.09-13.89,6.68-13.82,15.87.08,9.43,6,16,14.32,16.06,8,0,14.19-7.33,13.94-16.47C270.7,173.5,264.52,166.89,256.5,167Z"/><line class="cls-3" x1="350.89" y1="133.86" x2="414.09" y2="134.35"/><line class="cls-3" x1="157.32" y1="133.86" x2="290.13" y2="133.86"/><line class="cls-4" x1="294.29" y1="190.61" x2="294.29" y2="207.19"/><line class="cls-4" x1="294.29" y1="198.55" x2="348.3" y2="198.55"/><line class="cls-4" x1="348.3" y1="190.61" x2="348.3" y2="207.19"/><line class="cls-3" x1="157.32" y1="125.08" x2="157.32" y2="140.68"/><path class="cls-5" d="M414.09,134.35l11.22.09v70.39h17.07"/><polyline class="cls-5" points="435.6 199.62 442.26 205.19 435.92 210.29"/></g></g></svg>