<svg xmlns="http://www.w3.org/2000/svg" preserveAspectRatio="none" viewBox="0 0 709.86 463.19"><defs><style>.cls-1{fill:none;stroke:#fff;stroke-miterlimit:10;stroke-width:5px;}</style></defs><g id="Layer_2" data-name="Layer 2"><g id="Layer_1-2" data-name="Layer 1"><polygon class="cls-1" points="3.09 2.5 2.5 460.69 707.36 460.69 707.36 2.5 3.09 2.5"/><polyline class="cls-1" points="5.97 24.88 60.71 24.88 60.21 2.5 159.98 2.5 159.98 24.88 58.84 24.88"/><polyline class="cls-1" points="159.98 24.88 268.17 24.88 268.17 9.72 268.17 2.5"/><polyline class="cls-1" points="345.71 9.27 345.71 3.68 345.71 18.4 345.71 24.88 268.17 24.88 268.17 13.69 345.71 13.69"/><line class="cls-1" x1="425.21" y1="440.71" x2="425.21" y2="459.48"/><line class="cls-1" x1="525.09" y1="440.8" x2="525.09" y2="459.48"/><polyline class="cls-1" points="366.89 459.48 366.89 440.71 705.63 440.91"/><line class="cls-1" x1="447.01" y1="440.8" x2="447.01" y2="460.69"/><line class="cls-1" x1="425.21" y1="450.75" x2="525.09" y2="450.75"/></g></g></svg>