<svg xmlns="http://www.w3.org/2000/svg" viewBox="0 0 438.22 109.4"><defs><style>.cls-1{fill:#bca80e;}.cls-1,.cls-2{stroke:#bca80e;stroke-miterlimit:10;}.cls-2{fill:none;stroke-width:6px;}</style></defs><g id="Layer_2" data-name="Layer 2"><g id="Layer_1-2" data-name="Layer 1"><path class="cls-1" d="M24.36,32.26c-.14-3.64-1.31-8.2,1.29-9.85,1.11-.7,1.59-.38,3.85-.31,9.23.25,14.29,3.64,14.3,10.32s-4.59,9.31-14.21,9.47c-1.87,0-2.94-.45-4.85-.62C23.71,41.17,24.4,35.6,24.36,32.26ZM39,35.3a21.35,21.35,0,0,0,0-4.86,3.36,3.36,0,0,0-2.49-2.8c-3.41-.9-9.21-1.78-9-.2.25,2.38-.12,10.19-.12,10.19A76.73,76.73,0,0,0,36.2,38,3,3,0,0,0,39,35.3Z"/><path class="cls-1" d="M50.18,60.33c6.1,11.62,12,22.47,17.51,33.56,4.63,9.49,3.13,10-6.22,9.73-5.57-.14-10.45.58-14.61-.79-6-2-15.83-20.88-18.79-23.75,0,5.82.68,11.77-.31,17.43-.45,2.62-4.12,6.63-6.44,6.7C-3.15,104,.76,104.69.69,85.08.61,61.52.67,38,.68,14.41.69.48.7.46,14.44.51c6.44,0,12.89,0,19.32.26C47.51,1.33,58,6.84,63,20.12c5.18,13.75,1.87,27-9.12,36.85C52.82,57.92,51.77,58.88,50.18,60.33ZM62.92,97.11c-5.83-11-10.91-21.32-16.6-31.26-3.29-5.77-3.26-9.3,3.19-13.17,9.85-5.9,10.47-16,9.19-26-1.14-9-6-16.46-15.12-18.09-11.8-2.12-24-2.07-36.16-3v91.5H22.11c0-9-.2-17.57.14-26.1.09-2.21-.52-6.1.5-8.27a24.59,24.59,0,0,1,5.3,5.91c3.27,5.42,8.62,11.36,11.54,17C46.22,98.4,46.22,98.4,62.92,97.11Z"/><path class="cls-1" d="M117.2,76.91c9.41,0,18.31.12,27.21,0,5.83-.11,8.6,2.26,8.68,7.22.34,22.78,2.09,21.35-21.74,21.18-12.25-.08-24.49-.05-36.74,0-6.47,0-9.59-2.31-9.55-8.37q.28-43.95,0-87.91c0-5.89,2.69-8.49,9.42-8.44q24.32.17,48.65,0c7.15,0,9.79,2.88,10.07,9,.87,19.28,1,19.34-21.06,19.3-3.31,0-6.69-.34-9.91.13-2.11.32-4,1.82-6,2.8,1.87,1.1,3.69,3.05,5.63,3.15,7.25.4,14.56.36,21.83.14,6.28-.18,9.26,2.29,9.33,7.66C153.4,66,154.56,62,132.23,63c-1.32,0-2.65,0-4,0C115.06,63.08,114.77,63.41,117.2,76.91ZM145.73,7H92.42V99.33c16.53,0,33,.13,49.4-.2,1.56,0,4-2.78,4.37-4.52.68-3.55.2-7.28.2-11.78H128.2c-20,0-19.75,0-19.13-18,.21-6.08,2.89-8.28,9.57-8.1,8.83.25,17.67.07,26.8.07V41c-7.26,0-13.55.33-19.79-.08-7-.46-17.15,3.59-16.46-8.77.5-9.21,0-9.24,16.87-9.26h19.67Z"/><path class="cls-1" d="M245.31,108.54c-8.1,1.95-10.12-4.05-12-13.09C232,88.92,228,87,221.61,86.94c-9.12,0-27.78-2.45-27.78,12.33-1.81,7-23.19,10.78-27.71,5.21-1.27-1.56-1.14-5.11-.33-7.27C177.11,67,188.53,36.76,200.37,6.72c1-2.48,5-5,7.89-5.38,17.72-2,17.91-1.62,24.3,15.25,9.46,25,17.5,51.47,27,76.44C265.08,107.43,262.75,108.52,245.31,108.54Zm-75.09-7.26c7.72-2,16.65,4,18.68-5.17,2.6-11.73,10.55-15.83,22.15-15.15,10.4.62,23.37-3.32,26.89,9.52,4.08,14.86,1,6,2.65,12.09,1.17,4.34,12.11.16,17.81-1.36C247.73,73,236.23,42.71,226,14.36c-2.22-6.13-5.37-7.67-11.65-7.85-6.71-.19-9.92,2.15-11.36,8.17a63.24,63.24,0,0,1-2.81,7.39Z"/><path class="cls-2" d="M212.62,37.86a1.87,1.87,0,0,1,3.42.08c4.06,9.88,10.67,24.76,9.65,26-.27.32-4.27.57-4.87.54-10.88-.45-17.49,1.49-17.86,0-.66-2.7,1.85-9,4.67-16.19C208.55,45.91,211,41.42,212.62,37.86Z"/><path class="cls-1" d="M275,53.72c0-13.37.23-26.74-.09-40.1-.17-7.22,2.05-10.55,8.92-10.07,8.75.61,17.61,0,26.29,1.15,20.24,2.57,34.65,18,36.66,40.52a94.65,94.65,0,0,1-2.28,31.05c-4.33,17.06-15.39,27.37-31.89,28.85-10,.9-20.12.69-30.18,1.09-5.82.24-7.61-3.06-7.54-9,.18-14.5.06-29,.06-43.5Zm5.68,47.49c13.11-1,25.47-.33,37-3.35,6.74-1.76,13.76-8.17,18-14.61,10.56-16.19,9.05-43.87-2.44-59.22-3.46-4.63-8.43-9.69-13.4-10.81-12.64-2.83-25.68-3.54-39.15-5.17Z"/><path class="cls-1" d="M328.57,56.5c-.16,20.26-11.59,31-29.85,27.56-1.86-.36-4.56-3.86-4.61-6-.39-15.6-.41-31.23.06-46.83.06-2,3.46-5.43,5.52-5.62C317.53,24,328.74,36.19,328.57,56.5ZM299.63,77.87C307.7,79,315.5,79.11,319.93,71c5.4-9.92,5-21-.25-30.79-4.14-7.76-11.57-9.49-20.05-8.56Z"/><path class="cls-1" d="M437.72,1c-6,.34-32.4,0-33.13.68A58.72,58.72,0,0,1,399,12.45s-3.2,7.45-7.77,16.1c-3.32-5.86-5.78-10.41-8.16-14.7-3.22-5.8-4.37-13.48-9.35-13-3.64.35-27.55.58-28.89.59-.38,5.39,27.07,45.68,30.26,54.05,4.08,10.69.91,21.31.7,33.62-.26,15.74-.38,18,19.37,16.16.64-.06,1.28,0,1.92,0,6.23,0,9.32-2.43,9.08-8.45-.31-7.76-1.77-36.34,1-42.08,1.73-3.55,9.18-14.37,11-17.92C422.44,28.46,437.73,1,437.72,1ZM417.54,26.21C413.33,33.16,402.1,51.09,401,54.63c-3.23,10.63-1,41-1.15,42.89-8.73-1.09-12.89.63-16.94.42-2.18-.12-.18-6.87,0-10.62.45-11.62,2.42-22.19-1.06-32.23C379,46.88,357.45,16.15,352.89,7.94c6.46-1,13.69-.7,18.27-.91,3.38-.16,3.53,5.48,5.91,10.27,2.65,5.35,5.92,10.79,9.14,16.09,2.74,4.49,6.17,5.2,9.15.36,5.22-8.45,10-17.09,15.37-26.23h17.56C425,13.88,421.27,20,417.54,26.21Z"/></g></g></svg>