<svg xmlns="http://www.w3.org/2000/svg" viewBox="0 0 465.18 90.06"><defs><style>.cls-1{fill:none;stroke:#000;stroke-miterlimit:10;stroke-width:2px;}.cls-2{font-size:48px;font-family:BebasNeue, Bebas Neue;letter-spacing:0.03em;}</style></defs><g id="Layer_2" data-name="Layer 2"><g id="Layer_1-2" data-name="Layer 1"><line class="cls-1" x1="261.07" y1="17.4" x2="261.35" y2="29.62"/><line class="cls-1" x1="261.2" y1="23.25" x2="464.03" y2="24.23"/><line class="cls-1" x1="463.9" y1="18.38" x2="464.18" y2="30.6"/><text class="cls-2" transform="translate(52.83 40.8) scale(0.97 1)">to connect?</text><line class="cls-1" x1="136.94" y1="70.92" x2="143.38" y2="78.09"/><line class="cls-1" x1="137.92" y1="83.86" x2="144.02" y2="77.41"/><line class="cls-1" x1="0.92" y1="2.91" x2="33.22" y2="78.41"/><path class="cls-1" d="M32.22,78.2H47.54s4.64-6.79,6.11-13.55S58.88,78.2,58.88,78.2,60.55,89.59,62.17,89s5.42-12.87,5.42-12.87l2.24-5.89s1.13-3.81,3.2,0l3.31,11.88s1.86,2.9,2.9.21a52.34,52.34,0,0,0,1.86-7s1-2.69,2.7,0,1.89,6.21,3.22,5.8,2.78-5.8,2.78-5.8,2.28-10.15,3.31-8.7,1.87,7.69,2.7,9.54L96.64,78l45.56.21"/></g></g></svg>