<svg xmlns="http://www.w3.org/2000/svg" viewBox="0 0 71.18 61.93"><defs><style>.cls-1{fill:#fff;}</style></defs><g id="Layer_2" data-name="Layer 2"><g id="Layer_1-2" data-name="Layer 1"><path class="cls-1" d="M0,56.43c7.4-.66,14.18-2.76,20.14-7.34-2.88-1.16-5.81-1.83-8.14-3.41s-4.1-4.12-6.11-6.24l.51-.92,5.5-.61C5.34,34.85,1,30.3.33,22.64l6.35,1.81C1.28,18.3-1.43,11.74,2.08,3.2c8.67,9.7,19,15.35,32,16.22.24-2.39.31-4.55.71-6.66,2-10.8,13-16.21,22-10.38,3.68,2.36,6.56,2.43,10.05.6a3.85,3.85,0,0,1,2.8-.2L63.75,10l7.43-1.49a18.53,18.53,0,0,1-2.52,3c-3.6,2.56-4.3,6.33-4.61,10.41a43,43,0,0,1-38,39.72A41.82,41.82,0,0,1,0,56.43Z"/></g></g></svg>