<svg xmlns="http://www.w3.org/2000/svg" viewBox="0 0 566.95 144.87"><defs><style>.cls-1{fill:#fff;}.cls-2{fill:none;stroke:#fff;stroke-miterlimit:10;stroke-width:2px;}</style></defs><g id="Layer_2" data-name="Layer 2"><g id="Layer_1-2" data-name="Layer 1"><path class="cls-1" d="M366.44,65.78c7.75,0,15.08.1,22.4,0,4.8-.09,7.08,1.89,7.14,6,.28,19,1.72,17.85-17.89,17.71-10.08-.07-20.16,0-30.24,0-5.32,0-7.89-1.93-7.86-7q.24-36.76,0-73.51c0-4.93,2.22-7.1,7.76-7.07q20,.15,40,0c5.89,0,8.06,2.41,8.29,7.56.72,16.11.81,16.16-17.33,16.13a55.29,55.29,0,0,0-8.15.11c-1.74.26-3.29,1.52-4.92,2.34,1.54.92,3,2.55,4.63,2.64,6,.33,12,.29,18,.11,5.17-.15,7.62,1.92,7.68,6.41.24,19.5,1.2,16.16-17.18,16.92-1.09,0-2.18,0-3.27,0C364.68,54.22,364.44,54.49,366.44,65.78ZM389.93,7.34H346.05V84.53c13.6,0,27.14.11,40.66-.17,1.28,0,3.31-2.32,3.59-3.77.56-3,.17-6.1.17-9.86h-15c-16.46,0-16.26,0-15.75-15,.18-5.09,2.38-6.93,7.88-6.77,7.26.2,14.54,0,22.06,0V35.79c-6,0-11.16.27-16.29-.07-5.74-.38-14.11,3-13.55-7.33.42-7.7,0-7.72,13.89-7.74h16.19Z"/><path class="cls-1" d="M303.68,56.66c-3.94,11.8-7.69,21.85-10.62,32.13-2.42,8.45-9,5.39-14.29,5.93-4.8.49-8.6-.23-10.24-6-2.85-10.06-6.47-19.9-10.52-32.08-2.08,11.77-4.13,21.3-5.36,30.94-.74,5.8-3.56,7.29-9,7.29-19,0-17.12-.13-14.44-16.11,3.9-23.3,8-46.57,11.64-69.92C242,1.9,245.2-.32,252.05,0c13.25.68,13.26.39,17.25,12.85,3.6,11.22,7.22,22.44,11.51,35.77,4.94-14.66,9.6-27.21,13.31-40C296,2.14,299-.46,305.85.11c14.21,1.19,12.89-2.73,15.66,13.43q6,35.3,11.65,70.67c1.28,8.09,7.75,46.31,10.13,57.59.41,2-1.53,3-3.11,3-4.9,0-19.72.18-21.88-.24-3.6-.71-9-53.43-10.16-62.91C307.18,73.9,305.42,66.21,303.68,56.66ZM336,136.84c-3.93-24.08-16.35-100.32-20.25-124.41-.63-3.93-1.29-7-6.56-6.69-4.5.3-8.55-.5-10.32,5.62-4.09,14.11-8.85,28-13.61,41.93-.74,2.17-2.89,3.86-4.39,5.77-1.42-2-3.42-3.77-4.17-6-4.45-13.17-8.94-26.34-12.73-39.7-1.79-6.32-5.17-7.88-11.33-7.71-6.47.19-6,4.57-6.79,8.55C244.41,22,243,29.7,241.69,37.46c-2.8,17-5.49,33.95-8.3,51.38h13.05c2.91-15.36,5.76-30.45,8.62-45.53h3.12c1.24,2.4,2.81,4.69,3.67,7.21,3.79,11.19,7.08,22.56,11.27,33.59.87,2.28,4.59,4.19,7.35,4.9,3.67.94,6.84.1,8.27-4.76,3.48-11.83,7.58-23.48,11.66-35.12.69-2,2.58-3.49,3.92-5.22,1.31,2,3.4,3.77,3.81,5.9C310,59.35,311.35,69,313,78.55c1.44,8.64,5.37,40.14,8.87,56.22C323,140.12,336.19,138.06,336,136.84Z"/><path class="cls-1" d="M152.35,6.37c-1.5,0-3-.15-4.47-.09-.55,0-7.07-.09-7.31-.09-.6,4.52-1.34,8-2.21,12.73-1.17-3.24-2.2-6.56-3.64-9.77-.48-1.09-2.22-1.8-3-2.86l0-.06-5.78,0c-.66.73-1.39,1.43-2.07,2.08l.15,0c-1.26,3.71-2.49,7.35-4,11.67-1.15-4-2.12-7.31-3-10.6-.34-1.26-.53-2.62-1.81-3.08l-2.52,0-.14,0v0l-5.73,0-.69,0v0h-.72a6.26,6.26,0,0,1-.63,0c0,.51,1.1,4.46,1.34,4.43,2.47,8.67,5,17.44,7.41,26.24.57,2.12,2.08,2.72,4.5,2.56,2.61-.18,5.86,1,6.9-2.32,1.25-3.91,2.76-7.77,4.35-12.17,1.52,4.23,3.12,8,4.18,11.79,1,3.64,4.46,2.48,7.29,2.69s4-.69,4.57-2.85c1.69-6.57,4-13,5.37-19.66C151.43,13.59,154.62,10.12,152.35,6.37Zm-7,20.69c-.8,2.87-1.77,5.72-2.37,8.61-.33,1.61-1.49,1.94-3.16,1.89s-3.45.13-4.07-1.81c-1.38-4.37-3-8.69-4.68-13-.26-.7-1.06-1.28-1.62-1.92-.69.64-1.73,1.2-2,1.93-1.63,4.31-3.18,8.65-4.57,13-.56,1.75-2.06,1.73-3.77,1.71s-2.88,0-3.33-1.71c-2.36-8.8-4.89-17.58-7.35-26.37-.07-.24-.64-.64-.57-1.08.48-.07,4.76.25,6,.09,1.44-.18,3.62,12.46,4,13.44a4.52,4.52,0,0,0,1.65,2.23c.6.41.82,0,1.28-.36a3,3,0,0,0,1-1.09c1.22-3.07,2.26-6.18,3.36-9.29.15-.44,1-4.06,1.91-4.68s2.93.24,3.82-.38c.84,1.31,4.7,10.51,5.95,13.76.18.45,1.21,2,1.82,2.14,2,.4,3.93-16.31,4.75-16.3a72,72,0,0,0,7.36,0C148.78,14.74,147.08,20.9,145.37,27.06Z"/><path class="cls-1" d="M182.9,15.77c0,7.1.06,13.79-.05,20.48,0,1.38-.5,3.8-1.15,3.92a25.83,25.83,0,0,1-7.55-.05c-.45,0-.93-1.74-1-2.68-.09-6.13,0-12.27-.06-18.41V16.39c-.38-.26-.52-.43-.7-.47-1.52-.37-4.2-.48-4.35-1.12a23.75,23.75,0,0,1-.23-7.25c0-.41,1.41-1,2.17-1,5.44-.1,10.88-.07,16.32-.07a2.18,2.18,0,0,1,1.2.18c2.66,2,1.09,4.75,1.19,7.14,0,.64-1.81,1.48-2.93,2C185.15,16,184.22,15.77,182.9,15.77Zm-13-2.31c5.5.71,5.49.71,5.49,5.61,0,6.31,0,12.62,0,18.84,4.87,1.18,5.35.85,5.34-3.31,0-5.1,0-10.21,0-15.31s0-5.12,5.26-5.7c.18,0,.33-.2.48-.3V8.65H169.88Z"/><path class="cls-1" d="M200.48,27.12c0,3.67-.06,7.07,0,10.47.05,2-.91,2.75-2.95,2.76-8.09,0-6.64.25-6.68-5.68-.05-8.32.1-16.64,0-25-.05-2.57.77-3.76,3.65-3.45a14.55,14.55,0,0,0,2.47,0c2.69-.2,3.69.92,3.54,3.36s0,5.07,0,7.91c1.74.09,3.24.15,4.73.26,1.82.13,2.6-.55,2.52-2.29-.1-2.26,0-4.53,0-6.8,0-1.7.86-2.3,2.61-2.42,6.74-.49,6.95-.35,7,5.78,0,8.42-.07,16.83.06,25.25,0,2.26-.89,3.13-3.21,3h-.62c-5.83.13-5.83.13-5.84-5.12,0-2.46,0-4.91,0-7.37a3.24,3.24,0,0,0-.24-.72Zm14.58,11.16v-30h-5.34c0,1.37,0,2.57,0,3.78,0,7.81,0,7.75-8.47,7.61-2.16,0-2.93-.71-2.85-2.66.12-2.89,0-5.78,0-8.67h-5.55v3.57q0,11.36,0,22.69c0,4.18.83,4.7,5.49,3.22,0-1.82,0-3.7,0-5.59.2-8.49-1.75-7.15,8.26-7.28,2.24,0,3.15.7,3.08,2.81-.13,3.46,0,6.92,0,10.52Z"/><path class="cls-1" d="M166,23.45c0,4.64-.07,9.28,0,13.91,0,2.09-.85,3-3.07,2.87-.21,0-.41,0-.62,0-5.87.13-5.87.13-5.87-5.13,0-8.42.13-16.84,0-25.25-.05-2.72.88-3.92,3.86-3.63a11.88,11.88,0,0,0,2.15,0c2.72-.27,3.63.87,3.56,3.3-.14,4.63,0,9.27,0,13.9ZM163.8,38.28V8.19h-5.08V38.28Z"/><line class="cls-2" x1="2.03" y1="56.75" x2="227.57" y2="56.91"/><line class="cls-2" x1="1" y1="52.68" x2="1" y2="60.98"/><line class="cls-2" x1="407.51" y1="89.49" x2="413.71" y2="89.41"/><line class="cls-2" x1="410.48" y1="89.45" x2="409.88" y2="4.99"/><line class="cls-2" x1="406.91" y1="5.03" x2="413.11" y2="4.95"/><line class="cls-2" x1="346.05" y1="97" x2="355.7" y2="141.23"/><line class="cls-2" x1="348.69" y1="136.72" x2="355.7" y2="141.23"/><line class="cls-2" x1="358.65" y1="133.57" x2="355.7" y2="141.23"/><line class="cls-2" x1="423.26" y1="28.7" x2="565.66" y2="28.7"/><line class="cls-2" x1="565.95" y1="24.55" x2="565.95" y2="32.85"/></g></g></svg>