<svg xmlns="http://www.w3.org/2000/svg" viewBox="0 0 331.07 78.61"><defs><style>.cls-1{fill:#fff;}.cls-2{fill:none;stroke:#fff;stroke-miterlimit:10;stroke-width:2px;}</style></defs><g id="Layer_2" data-name="Layer 2"><g id="Layer_1-2" data-name="Layer 1"><path class="cls-1" d="M56.94.52c-1.5,0-3-.15-4.47-.09-.55,0-7.07-.09-7.31-.09-.59,4.52-1.34,8-2.2,12.73-1.18-3.24-2.21-6.56-3.65-9.77-.48-1.09-2.22-1.8-3-2.87a.1.1,0,0,1,0,0l-5.78,0c-.65.73-1.38,1.43-2.07,2.08l.15,0c-1.26,3.71-2.49,7.35-3.95,11.67-1.15-4-2.12-7.31-3-10.6C21.29,2.34,21.1,1,19.83.52L17.3.54l-.14,0v0l-5.73,0-.68,0v0H10a6.26,6.26,0,0,1-.63,0C9.37,1,10.49,5,10.73,5c2.47,8.67,5,17.44,7.41,26.24.57,2.12,2.08,2.72,4.5,2.55,2.61-.17,5.86,1,6.9-2.31,1.25-3.91,2.76-7.77,4.35-12.17,1.52,4.23,3.12,8,4.18,11.79,1,3.64,4.46,2.48,7.29,2.68s4-.68,4.57-2.84c1.69-6.57,4-13.06,5.37-19.66C56,7.74,59.21,4.27,56.94.52ZM50,21.21c-.8,2.87-1.76,5.71-2.36,8.61-.34,1.61-1.5,1.94-3.17,1.89s-3.45.13-4.06-1.81c-1.39-4.37-3-8.69-4.68-13A8.15,8.15,0,0,0,34.07,15c-.69.64-1.74,1.2-2,1.93-1.64,4.31-3.18,8.65-4.57,13-.56,1.76-2.07,1.74-3.78,1.72s-2.88,0-3.33-1.71C18,21.13,15.49,12.35,13,3.56c-.07-.24-.65-.64-.58-1.08.48-.07,4.76.25,6,.09C19.87,2.39,22,15,22.4,16a4.57,4.57,0,0,0,1.65,2.23c.6.41.82,0,1.28-.36a3,3,0,0,0,1-1.09c1.23-3.07,2.26-6.18,3.36-9.29.16-.44,1-4.06,1.91-4.68s2.93.24,3.82-.38c.84,1.31,4.7,10.51,6,13.76.17.45,1.2,2,1.81,2.14,2,.39,3.93-16.31,4.76-16.3a71.76,71.76,0,0,0,7.35,0C53.37,8.88,51.67,15.05,50,21.21Z"/><path class="cls-1" d="M192.23,69c3.14,0,6.11,0,9.08,0,1.94,0,2.86.76,2.89,2.43.11,7.68.7,7.19-7.25,7.14-4.08,0-8.16,0-12.24,0-2.16,0-3.2-.78-3.19-2.83q.09-14.81,0-29.63c0-2,.9-2.86,3.14-2.85q8.1.06,16.22,0c2.38,0,3.26,1,3.35,3,.29,6.5.33,6.52-7,6.51a21.34,21.34,0,0,0-3.3,0,7.51,7.51,0,0,0-2,.94c.62.37,1.23,1,1.88,1.07,2.41.13,4.85.12,7.27,0,2.1-.06,3.09.77,3.11,2.58.1,7.86.49,6.52-6.95,6.83-.44,0-.89,0-1.33,0C191.52,64.37,191.43,64.48,192.23,69Zm9.52-23.56H184V76.59c5.52,0,11,0,16.47-.07.52,0,1.35-.93,1.46-1.52a22.29,22.29,0,0,0,.07-4H195.9c-6.67,0-6.58,0-6.37-6,.07-2.05,1-2.8,3.19-2.73,2.94.08,5.89,0,8.93,0V56.94c-2.42,0-4.52.11-6.6,0-2.32-.15-5.71,1.21-5.49-2.95.17-3.11,0-3.12,5.63-3.12,2.16,0,4.32,0,6.56,0Z"/><path class="cls-1" d="M87.49,9.92c0,7.1.06,13.79,0,20.48,0,1.38-.5,3.8-1.15,3.92a26.11,26.11,0,0,1-7.54,0c-.45-.05-.94-1.74-1-2.68-.09-6.13-.06-12.27-.06-18.41V10.54c-.39-.26-.53-.43-.71-.47-1.51-.37-4.2-.48-4.35-1.12a24.07,24.07,0,0,1-.23-7.25c0-.41,1.41-1,2.17-1C80.06.55,85.5.58,90.94.58a2.18,2.18,0,0,1,1.2.18c2.66,2,1.09,4.75,1.19,7.14,0,.64-1.81,1.48-2.93,2C89.74,10.16,88.81,9.92,87.49,9.92Zm-13-2.31C80,8.32,80,8.32,80,13.22c0,6.31,0,12.62,0,18.84,4.88,1.18,5.35.85,5.34-3.31,0-5.11,0-10.21,0-15.31s0-5.12,5.26-5.7c.17,0,.32-.2.47-.31V2.8H74.47Z"/><path class="cls-1" d="M105.07,21.27c0,3.67-.06,7.07,0,10.47,0,2-.91,2.75-2.94,2.76-8.1,0-6.65.24-6.69-5.68,0-8.32.1-16.64,0-25,0-2.57.77-3.76,3.66-3.45a14.43,14.43,0,0,0,2.46,0c2.69-.21,3.69.92,3.54,3.36s0,5.07,0,7.91c1.74.09,3.23.15,4.72.26,1.82.13,2.6-.55,2.53-2.29-.1-2.26,0-4.53,0-6.8,0-1.7.86-2.3,2.61-2.42,6.74-.49,7-.35,7,5.78,0,8.42-.07,16.83.06,25.24,0,2.27-.89,3.14-3.21,3-.2,0-.41,0-.61,0-5.84.12-5.84.12-5.85-5.12,0-2.46,0-4.92,0-7.37a3.07,3.07,0,0,0-.23-.72Zm14.58,11.16v-30h-5.34V6.21c0,7.81,0,7.75-8.48,7.61-2.15,0-2.93-.71-2.85-2.66.12-2.89,0-5.78,0-8.67H97.46V6.06q0,11.34.05,22.69c0,4.18.84,4.7,5.49,3.22,0-1.82,0-3.7,0-5.59.2-8.49-1.75-7.15,8.26-7.28,2.24,0,3.16.69,3.08,2.81-.13,3.45,0,6.92,0,10.52Z"/><line class="cls-2" x1="147.92" y1="67.03" x2="147.92" y2="73.23"/><line class="cls-2" x1="147.92" y1="70" x2="175.92" y2="70"/><line class="cls-2" x1="175.92" y1="67.03" x2="175.92" y2="73.23"/><path class="cls-1" d="M70.57,17.6c0,4.64-.07,9.27,0,13.91,0,2.09-.85,3-3.07,2.87-.21,0-.41,0-.62,0-5.87.14-5.87.14-5.86-5.12,0-8.42.12-16.84,0-25.26C61,1.29,61.92.09,64.89.38A11,11,0,0,0,67,.39c2.72-.26,3.63.88,3.56,3.31-.14,4.63,0,9.27,0,13.9ZM68.39,32.43V2.33H63.32v30.1Z"/><path class="cls-1" d="M78.76,61a16.69,16.69,0,1,1,33.37-.23C112.19,70.61,105,78,95.25,78,85.89,78,78.79,70.66,78.76,61ZM95.1,76c8.64.17,14.84-5.91,15.12-14.8a14.78,14.78,0,1,0-29.54-.88C80.51,69.36,86.45,75.82,95.1,76Z"/><path class="cls-1" d="M95.42,50.72a10.2,10.2,0,0,1-.08,20.39A9.78,9.78,0,0,1,85.58,61C85.61,54.92,89.65,50.71,95.42,50.72Zm-.17,1.88c-4.56,0-7.76,3.47-7.72,8.26s3.34,8.34,8,8.35c4.46,0,7.93-3.81,7.79-8.57A8,8,0,0,0,95.25,52.6Z"/><path class="cls-1" d="M135.5,52.82c0,7.25.07,14.09-.06,20.93,0,1.4-.57,3.88-1.31,4a34,34,0,0,1-8.67,0c-.52-.06-1.08-1.78-1.09-2.74-.11-6.27-.06-12.54-.07-18.81v-2.7a4.15,4.15,0,0,0-.81-.48c-1.74-.38-4.82-.49-5-1.14a21.89,21.89,0,0,1-.26-7.41c0-.41,1.62-1.06,2.5-1.07,6.24-.1,12.49-.07,18.74-.07a2.83,2.83,0,0,1,1.37.18c3,2,1.25,4.85,1.37,7.3,0,.65-2.08,1.51-3.37,2C138.08,53.06,137,52.82,135.5,52.82Zm-15-2.36c6.31.72,6.31.72,6.3,5.74V75.44c5.6,1.21,6.15.86,6.13-3.38,0-5.22,0-10.43,0-15.65s0-5.23,6-5.82c.2,0,.37-.21.55-.31V45.55h-19Z"/><path class="cls-1" d="M158.6,47.55c0,3.82-.06,7.34,0,10.87.05,2-.91,2.85-2.95,2.86-8.09,0-6.64.26-6.68-5.89-.05-8.63.1-17.26,0-25.89-.05-2.67.77-3.91,3.66-3.59a13.47,13.47,0,0,0,2.46,0c2.69-.22,3.69.95,3.54,3.48s0,5.26,0,8.21c1.74.09,3.24.15,4.72.26,1.83.14,2.61-.56,2.53-2.36-.1-2.35,0-4.71,0-7.07,0-1.76.85-2.38,2.61-2.51,6.74-.51,6.95-.36,6.95,6,0,8.72-.07,17.45.06,26.18,0,2.35-.89,3.25-3.21,3.14-.2,0-.41,0-.61,0-5.84.13-5.83.13-5.84-5.31q0-3.83-.05-7.65a3.5,3.5,0,0,0-.23-.75Zm14.58,11.58V28h-5.34v3.91c0,8.11,0,8-8.47,7.89-2.16,0-2.93-.73-2.85-2.75.12-3,0-6,0-9H151v3.71q0,11.76.05,23.54c0,4.33.83,4.87,5.49,3.33,0-1.88,0-3.83,0-5.79.2-8.81-1.75-7.42,8.26-7.56,2.23,0,3.15.73,3.07,2.92-.12,3.58,0,7.18,0,10.91Z"/><path class="cls-1" d="M218.87,54c-.08-1.76-.06-3.35,2.62-3.28,3.28.08,5.08,1.23,5.08,3.49s-1.68,3.32-5.1,3.38C218.45,57.6,218.93,55.65,218.87,54Zm5.72.63,0-.87a6,6,0,0,0-2.15-.89c-.5,0-1,.81-1.49,1.26.48.45.93,1.24,1.45,1.27A5.92,5.92,0,0,0,224.59,54.59Z"/><path class="cls-1" d="M228.84,63.6c2.17,3.93,4.29,7.6,6.23,11.34,1.22,2.37.58,3-2.22,3.29-4.78.58-8.29-.51-9.72-5.26a6.93,6.93,0,0,0-2.15-3,33,33,0,0,1-.1,5.89c-.17.88-1.47,2.24-2.29,2.26-8.7.27-7.31.5-7.34-6.13,0-8,0-15.92,0-23.88,0-4.71,0-4.72,4.89-4.7,2.29,0,4.58,0,6.87.09,4.88.19,8.61,2.05,10.39,6.54,1.84,4.65.66,9.12-3.24,12.45ZM233.37,76c-2.07-3.74-3.88-7.21-5.9-10.57-1.17-1.94-1.16-3.14,1.13-4.45,3.5-2,3.72-5.39,3.27-8.8-.41-3.05-2.15-5.56-5.37-6.11-4.2-.72-8.54-.7-12.85-1V76h5.22c0-3-.07-5.94,0-8.82,0-.75.67-1.47,1-2.21.67.49,1.56.85,2,1.48,1.16,1.83,2.13,3.77,3.17,5.67C227.44,76.47,227.43,76.47,233.37,76Z"/><path class="cls-1" d="M251.09,52.59c1.46,1,3,2,4.35,3.14,2.36,2,4.93,4,6.79,6.36a9,9,0,0,1,.33,11.55c-2.65,3.76-6.8,5.07-11.57,4.66a12.28,12.28,0,0,1-10.79-7.42C239,68.1,242,67.17,243.91,66s3.7-1.44,5.1.76c1.11,1.73,2.55,3.06,5.55,1.63a26.09,26.09,0,0,0-2.45-3c-2.33-2.08-4.84-4-7.16-6.1-4.36-3.93-4.82-9.65-1.19-13.43,3.9-4,10.51-4.6,15.55-1.29a3.24,3.24,0,0,1,.75.53c1.21,1.47,3.74,3.54,3.32,4.33-1.08,2-3.39,3.49-5.42,5-.41.29-1.86-.34-2.66-.79a28.22,28.22,0,0,1-3-2.22ZM261.8,49c-2.14-1.42-3.81-2.95-5.83-3.8-5.46-2.27-11.59.64-12.38,5.8-.46,3,1.07,5.32,3.36,7.35,2.94,2.61,6.05,5.1,8.71,7.92,1.92,2,.59,4.32-2.38,4.74-2.7.38-4.29-1-5.89-2.69A3.16,3.16,0,0,0,244.6,68c-.95.57-2.18,1.87-2,2.65.61,3,5.24,5.56,9.44,5.7s8.13-1.93,9.42-5.15c1.63-4.07.16-7.5-3.06-10.4-2.47-2.22-5.22-4.19-7.72-6.39-1.2-1.07-2.6-2.7-.7-3.85,1.13-.69,3.28-.35,4.85,0,1,.2,1.73,1.24,2.68,2C258.89,51.41,260.12,50.42,261.8,49Z"/><line class="cls-2" x1="181.52" y1="34.42" x2="331.07" y2="34.58"/><line class="cls-2" x1="182.52" y1="30.44" x2="182.52" y2="38.75"/><line class="cls-2" x1="130.25" y1="0.75" x2="125.63" y2="4.88"/><line class="cls-2" x1="128.04" y1="2.73" x2="146.71" y2="23.59"/><line class="cls-2" x1="148.92" y1="21.61" x2="144.3" y2="25.75"/><line class="cls-2" y1="59.45" x2="71.53" y2="59.53"/></g></g></svg>